<svg width="32" height="33" viewBox="0 0 32 33" fill="none" xmlns="http://www.w3.org/2000/svg">
<path fill-rule="evenodd" clip-rule="evenodd" d="M16 5.49967C10.109 5.49967 5.33335 10.2753 5.33335 16.1663C5.33335 22.0574 10.109 26.833 16 26.833C21.0549 26.833 25.2886 23.3168 26.3885 18.5969L25.876 19.1093C25.3552 19.6299 24.511 19.6298 23.9903 19.109C23.4697 18.5882 23.4698 17.744 23.9906 17.2234L26.6581 14.5567C26.9082 14.3067 27.2473 14.1663 27.6009 14.1663C27.9546 14.1664 28.2937 14.3069 28.5437 14.557L31.2096 17.2237C31.7302 17.7444 31.7301 18.5887 31.2093 19.1093C30.6885 19.6299 29.8443 19.6298 29.3237 19.109L29.0634 18.8487C27.822 24.9269 22.445 29.4997 16 29.4997C8.63622 29.4997 2.66669 23.5301 2.66669 16.1663C2.66669 8.80254 8.63622 2.83301 16 2.83301C20.8934 2.83301 25.1694 5.46979 27.4874 9.39365C27.8619 10.0277 27.6515 10.8453 27.0175 11.2198C26.3835 11.5943 25.5659 11.384 25.1914 10.7499C23.3333 7.60459 19.9118 5.49967 16 5.49967ZM16 8.16634C16.7364 8.16634 17.3334 8.7633 17.3334 9.49967V15.4528L20.7396 17.7236C21.3523 18.1321 21.5179 18.9599 21.1094 19.5726C20.701 20.1853 19.8731 20.3509 19.2604 19.9424L15.2604 17.2757C14.8895 17.0285 14.6667 16.6121 14.6667 16.1663V9.49967C14.6667 8.7633 15.2636 8.16634 16 8.16634Z" fill="#52AE30"/>
</svg>
