<svg width="18" height="19" viewBox="0 0 18 19" fill="none" xmlns="http://www.w3.org/2000/svg">
<path fill-rule="evenodd" clip-rule="evenodd" d="M5.06897 2.75H12.9309C13.5346 2.74999 14.0329 2.74998 14.4388 2.78315C14.8604 2.81759 15.2479 2.89151 15.6119 3.07698C16.1764 3.3646 16.6353 3.82354 16.923 4.38803C17.1019 4.73929 17.177 5.11245 17.213 5.51698C17.2531 5.63953 17.2602 5.76879 17.2363 5.8922C17.25 6.22979 17.25 6.62027 17.2499 7.06901V11.931C17.25 12.5347 17.25 13.033 17.2168 13.4389C17.1824 13.8604 17.1084 14.248 16.923 14.612C16.6353 15.1765 16.1764 15.6354 15.6119 15.923C15.2479 16.1085 14.8604 16.1824 14.4388 16.2169C14.0329 16.25 13.5347 16.25 12.9309 16.25H5.06895C4.46523 16.25 3.96697 16.25 3.56107 16.2169C3.1395 16.1824 2.75197 16.1085 2.38797 15.923C1.82348 15.6354 1.36454 15.1765 1.07692 14.612C0.891455 14.248 0.817531 13.8604 0.783088 13.4389C0.749924 13.033 0.749932 12.5347 0.749942 11.931V7.06903C0.749935 6.62028 0.749929 6.22979 0.763545 5.8922C0.739728 5.76879 0.746757 5.63952 0.786854 5.51697C0.822845 5.11245 0.897949 4.73929 1.07692 4.38803C1.36454 3.82354 1.82348 3.3646 2.38797 3.07698C2.75197 2.89151 3.1395 2.81759 3.56107 2.78315C3.96697 2.74998 4.46524 2.74999 5.06897 2.75ZM2.24994 7.19049V11.9C2.24994 12.5424 2.25053 12.9792 2.27811 13.3167C2.30497 13.6455 2.35367 13.8137 2.41343 13.931C2.55724 14.2132 2.78671 14.4427 3.06896 14.5865C3.18626 14.6463 3.35441 14.695 3.68322 14.7218C4.02079 14.7494 4.45751 14.75 5.09994 14.75H12.8999C13.5424 14.75 13.9791 14.7494 14.3167 14.7218C14.6455 14.695 14.8136 14.6463 14.9309 14.5865C15.2132 14.4427 15.4426 14.2132 15.5865 13.931C15.6462 13.8137 15.6949 13.6455 15.7218 13.3167C15.7494 12.9792 15.7499 12.5424 15.7499 11.9V7.19049L10.8063 10.651C10.7772 10.6714 10.7484 10.6916 10.7198 10.7117C10.3114 10.9985 9.95267 11.2504 9.54415 11.3522C9.18681 11.4413 8.81307 11.4413 8.45574 11.3522C8.04722 11.2504 7.68854 10.9985 7.28005 10.7117C7.25146 10.6916 7.22264 10.6714 7.19354 10.651L2.24994 7.19049ZM15.6879 5.40296L9.94616 9.42216C9.39945 9.80485 9.28362 9.87125 9.18134 9.89675C9.06223 9.92644 8.93765 9.92644 8.81854 9.89675C8.71626 9.87125 8.60043 9.80485 8.05373 9.42216L2.31202 5.40296C2.33881 5.24759 2.37367 5.14705 2.41343 5.06902C2.55724 4.78677 2.78671 4.5573 3.06896 4.41349C3.18626 4.35372 3.35441 4.30503 3.68322 4.27816C4.02079 4.25058 4.45751 4.25 5.09994 4.25H12.8999C13.5424 4.25 13.9791 4.25058 14.3167 4.27816C14.6455 4.30503 14.8136 4.35372 14.9309 4.41349C15.2132 4.5573 15.4426 4.78677 15.5865 5.06902C15.6262 5.14705 15.6611 5.24759 15.6879 5.40296Z" fill="#52AE30"/>
</svg>
