<svg xmlns="http://www.w3.org/2000/svg" width="32" height="33" viewBox="0 0 32 33" fill="none">
<path fill-rule="evenodd" clip-rule="evenodd" d="M9.40129 4.73367C11.1516 2.98333 13.5256 2 16.001 2C18.4763 2 20.8503 2.98333 22.6006 4.73367C24.351 6.48401 25.3343 8.85798 25.3343 11.3333C25.3343 15.2169 26.3103 17.7918 27.3335 19.4361L27.3492 19.4614C27.8256 20.227 28.2023 20.8323 28.4562 21.2729C28.5834 21.4936 28.6993 21.7063 28.7851 21.8953C28.828 21.9896 28.8759 22.1053 28.9133 22.231C28.9444 22.3353 29.0036 22.5583 28.9814 22.8297C28.9665 23.0121 28.9293 23.3238 28.7504 23.6457C28.5716 23.9677 28.3266 24.1639 28.1796 24.273C27.8459 24.5205 27.4627 24.5771 27.3348 24.596L27.3288 24.5969C27.1323 24.626 26.9093 24.6405 26.6842 24.6493C26.2372 24.6667 25.6184 24.6667 24.8488 24.6667H7.15315C6.38352 24.6667 5.76466 24.6667 5.31765 24.6493C5.09265 24.6405 4.86961 24.626 4.67307 24.5969L4.66715 24.596C4.53924 24.5771 4.15601 24.5205 3.82229 24.273C3.67531 24.1639 3.43034 23.9677 3.25147 23.6457C3.0726 23.3238 3.03541 23.0121 3.02049 22.8297C2.99829 22.5583 3.05749 22.3353 3.08857 22.231C3.12602 22.1053 3.17395 21.9896 3.21678 21.8953C3.3026 21.7063 3.41851 21.4936 3.54574 21.2729C3.79964 20.8324 4.17626 20.2271 4.65266 19.4615L4.66844 19.4361C5.69161 17.7918 6.66762 15.2169 6.66762 11.3333C6.66762 8.85798 7.65095 6.48401 9.40129 4.73367ZM16.001 4.66667C14.2328 4.66667 12.5371 5.36905 11.2869 6.61929C10.0367 7.86953 9.33428 9.56522 9.33428 11.3333C9.33428 15.6903 8.23155 18.7574 6.93257 20.845C6.64877 21.3011 6.41192 21.6818 6.2184 21.9984C6.49383 21.9999 6.81426 22 7.18609 22H24.8158C25.1876 22 25.5081 21.9999 25.7835 21.9984C25.59 21.6818 25.3531 21.3011 25.0693 20.845C23.7704 18.7574 22.6676 15.6903 22.6676 11.3333C22.6676 9.56522 21.9652 7.86953 20.715 6.61929C19.4648 5.36905 17.7691 4.66667 16.001 4.66667ZM11.4735 27.7844C11.9608 27.2323 12.8034 27.1797 13.3555 27.667C14.0614 28.2901 14.9856 28.6667 16.001 28.6667C17.0163 28.6667 17.9405 28.2901 18.6464 27.667C19.1985 27.1797 20.0411 27.2323 20.5284 27.7844C21.0157 28.3364 20.9631 29.179 20.411 29.6663C19.2366 30.7029 17.6908 31.3333 16.001 31.3333C14.3111 31.3333 12.7653 30.7029 11.5909 29.6663C11.0388 29.179 10.9862 28.3364 11.4735 27.7844Z" fill="#52AE30"/>
</svg>