<svg xmlns="http://www.w3.org/2000/svg" width="24" height="25" viewBox="0 0 24 25" fill="none">
<path fill-rule="evenodd" clip-rule="evenodd" d="M8.70711 2.62639C9.09763 3.01691 9.09763 3.65008 8.70711 4.0406L6.41421 6.3335H20C20.5523 6.3335 21 6.78121 21 7.3335C21 7.88578 20.5523 8.3335 20 8.3335H6.41421L8.70711 10.6264C9.09763 11.0169 9.09763 11.6501 8.70711 12.0406C8.31658 12.4311 7.68342 12.4311 7.29289 12.0406L3.29289 8.0406C2.90237 7.65008 2.90237 7.01691 3.29289 6.62639L7.29289 2.62639C7.68342 2.23586 8.31658 2.23586 8.70711 2.62639ZM15.2929 12.6264C15.6834 12.2359 16.3166 12.2359 16.7071 12.6264L20.7071 16.6264C21.0976 17.0169 21.0976 17.6501 20.7071 18.0406L16.7071 22.0406C16.3166 22.4311 15.6834 22.4311 15.2929 22.0406C14.9024 21.6501 14.9024 21.0169 15.2929 20.6264L17.5858 18.3335H4C3.44772 18.3335 3 17.8858 3 17.3335C3 16.7812 3.44772 16.3335 4 16.3335H17.5858L15.2929 14.0406C14.9024 13.6501 14.9024 13.0169 15.2929 12.6264Z" fill="#52AE30"/>
</svg>