<svg xmlns="http://www.w3.org/2000/svg" width="24" height="25" viewBox="0 0 24 25" fill="none">
<path fill-rule="evenodd" clip-rule="evenodd" d="M12.0001 4.3335C10.0671 4.3335 8.50008 5.9005 8.50008 7.8335C8.50008 9.76649 10.0671 11.3335 12.0001 11.3335C13.9331 11.3335 15.5001 9.76649 15.5001 7.8335C15.5001 5.9005 13.9331 4.3335 12.0001 4.3335ZM6.50008 7.8335C6.50008 4.79593 8.96252 2.3335 12.0001 2.3335C15.0376 2.3335 17.5001 4.79593 17.5001 7.8335C17.5001 10.8711 15.0376 13.3335 12.0001 13.3335C8.96252 13.3335 6.50008 10.8711 6.50008 7.8335ZM9.32635 14.8335C9.38341 14.8335 9.44132 14.8335 9.50009 14.8335H14.5001C14.5589 14.8335 14.6168 14.8335 14.6738 14.8335C15.9011 14.833 16.7391 14.8327 17.4515 15.0488C19.0495 15.5335 20.3 16.7841 20.7848 18.3821C21.0009 19.0945 21.0006 19.9325 21.0001 21.1598C21.0001 21.2168 21.0001 21.2747 21.0001 21.3335C21.0001 21.8858 20.5524 22.3335 20.0001 22.3335C19.4478 22.3335 19.0001 21.8858 19.0001 21.3335C19.0001 19.8652 18.9892 19.3527 18.8709 18.9626C18.5801 18.0038 17.8297 17.2535 16.8709 16.9627C16.4809 16.8443 15.9684 16.8335 14.5001 16.8335H9.50009C8.03177 16.8335 7.51929 16.8443 7.12923 16.9627C6.17042 17.2535 5.42011 18.0038 5.12926 18.9626C5.01094 19.3527 5.00008 19.8652 5.00008 21.3335C5.00008 21.8858 4.55237 22.3335 4.00008 22.3335C3.4478 22.3335 3.00008 21.8858 3.00008 21.3335C3.00008 21.2747 3.00006 21.2168 3.00004 21.1598C2.99959 19.9325 2.99928 19.0945 3.21538 18.3821C3.70013 16.7841 4.95065 15.5335 6.54866 15.0488C7.26106 14.8327 8.09908 14.833 9.32635 14.8335Z" fill="#52AE30"/>
</svg>