<svg width="24" height="25" viewBox="0 0 24 25" fill="none" xmlns="http://www.w3.org/2000/svg">
<path fill-rule="evenodd" clip-rule="evenodd" d="M9.5 4.83301C7.84315 4.83301 6.5 6.17615 6.5 7.83301C6.5 9.48986 7.84315 10.833 9.5 10.833C11.1569 10.833 12.5 9.48986 12.5 7.83301C12.5 6.17615 11.1569 4.83301 9.5 4.83301ZM4.5 7.83301C4.5 5.07158 6.73858 2.83301 9.5 2.83301C12.2614 2.83301 14.5 5.07158 14.5 7.83301C14.5 10.5944 12.2614 12.833 9.5 12.833C6.73858 12.833 4.5 10.5944 4.5 7.83301ZM14.5731 3.74855C14.7803 3.23662 15.3633 2.9896 15.8752 3.19683C17.7058 3.93782 19 5.73307 19 7.83301C19 9.93294 17.7058 11.7282 15.8752 12.4692C15.3633 12.6764 14.7803 12.4294 14.5731 11.9175C14.3658 11.4055 14.6129 10.8225 15.1248 10.6153C16.2261 10.1695 17 9.09045 17 7.83301C17 6.57557 16.2261 5.49649 15.1248 5.0507C14.6129 4.84348 14.3658 4.26049 14.5731 3.74855ZM7.96448 14.833H11.0355C11.9373 14.833 12.6647 14.833 13.2567 14.8734C13.8654 14.9149 14.4037 15.0025 14.9134 15.2136C16.1386 15.7211 17.1119 16.6945 17.6194 17.9196C17.8305 18.4293 17.9181 18.9676 17.9596 19.5763C18 20.1683 18 20.8957 18 21.7975V21.833C18 22.3853 17.5523 22.833 17 22.833C16.4477 22.833 16 22.3853 16 21.833C16 20.8874 15.9995 20.2283 15.9643 19.7125C15.9297 19.2055 15.865 18.9103 15.7716 18.685C15.4672 17.9499 14.8831 17.3659 14.1481 17.0614C13.9227 16.968 13.6275 16.9033 13.1206 16.8687C12.6047 16.8335 11.9456 16.833 11 16.833H8C7.05444 16.833 6.39534 16.8335 5.87945 16.8687C5.37254 16.9033 5.07733 16.968 4.85195 17.0614C4.11687 17.3659 3.53284 17.9499 3.22836 18.685C3.135 18.9103 3.07033 19.2055 3.03574 19.7125C3.00054 20.2283 3 20.8874 3 21.833C3 22.3853 2.55229 22.833 2 22.833C1.44772 22.833 1 22.3853 1 21.833L1 21.7975C0.999993 20.8957 0.999988 20.1683 1.04038 19.5763C1.08191 18.9676 1.16948 18.4293 1.3806 17.9196C1.88807 16.6945 2.86144 15.7211 4.08658 15.2136C4.59628 15.0025 5.13456 14.9149 5.74331 14.8734C6.33531 14.833 7.06272 14.833 7.96448 14.833ZM18.0316 15.7098C18.1692 15.1749 18.7144 14.8529 19.2493 14.9906C21.4056 15.5456 23 17.5018 23 19.833V21.833C23 22.3853 22.5523 22.833 22 22.833C21.4477 22.833 21 22.3853 21 21.833V19.833C21 18.4365 20.0449 17.2605 18.7507 16.9275C18.2159 16.7898 17.8939 16.2446 18.0316 15.7098Z" fill="#52AE30"/>
</svg>
