<svg xmlns="http://www.w3.org/2000/svg" width="24" height="25" viewBox="0 0 24 25" fill="none">
<path fill-rule="evenodd" clip-rule="evenodd" d="M11.5 4.3335C10.1193 4.3335 9 5.45278 9 6.8335C9 8.21421 10.1193 9.3335 11.5 9.3335C12.7289 9.3335 13.7507 8.44685 13.9605 7.27837C13.9638 7.21861 13.9723 7.16024 13.9856 7.10372C13.9951 7.01495 14 6.9248 14 6.8335C14 5.45278 12.8807 4.3335 11.5 4.3335ZM15.9506 6.16471C15.6276 3.9966 13.758 2.3335 11.5 2.3335C9.01472 2.3335 7 4.34821 7 6.8335C7 7.07708 7.01935 7.31615 7.05661 7.54924C5.47306 8.63083 4.35501 10.3472 4.07083 12.3335H4C3.44772 12.3335 3 11.8858 3 11.3335C3 10.9646 3.19922 10.6411 3.50073 10.4667C3.97879 10.1901 4.14215 9.5784 3.86561 9.10034C3.58906 8.62227 2.97733 8.45891 2.49927 8.73546C1.60518 9.25266 1 10.2218 1 11.3335C1 12.9903 2.34315 14.3335 4 14.3335H4.07091C4.28686 15.8417 4.98384 17.1955 5.99993 18.2325L5.99992 20.5566C5.99988 20.6758 5.99982 20.818 6.01006 20.9433C6.02193 21.0885 6.05237 21.2965 6.16342 21.5145C6.30723 21.7967 6.5367 22.0262 6.81894 22.17C7.03689 22.2811 7.24488 22.3115 7.3901 22.3234C7.51542 22.3336 7.65767 22.3335 7.77678 22.3335C7.7846 22.3335 7.79232 22.3335 7.79993 22.3335H9.69993C9.70754 22.3335 9.71526 22.3335 9.72308 22.3335C9.84219 22.3335 9.98445 22.3336 10.1098 22.3234C10.255 22.3115 10.463 22.2811 10.6809 22.17C10.9632 22.0262 11.1926 21.7967 11.3364 21.5145C11.4475 21.2965 11.4779 21.0885 11.4898 20.9433C11.5 20.818 11.5 20.6757 11.4999 20.5566L11.4999 20.3335H12.4999L12.4999 20.5566C12.4999 20.6757 12.4998 20.818 12.5101 20.9433C12.5219 21.0885 12.5524 21.2965 12.6634 21.5145C12.8072 21.7967 13.0367 22.0262 13.3189 22.17C13.5369 22.2811 13.7449 22.3115 13.8901 22.3234C14.0154 22.3336 14.1577 22.3335 14.2768 22.3335C14.2846 22.3335 14.2923 22.3335 14.2999 22.3335H16.2C16.2076 22.3335 16.2153 22.3335 16.2231 22.3335C16.3423 22.3335 16.4845 22.3336 16.6098 22.3234C16.755 22.3115 16.963 22.2811 17.181 22.17C17.4632 22.0262 17.6927 21.7967 17.8365 21.5145C17.9476 21.2965 17.978 21.0885 17.9899 20.9433C18.0001 20.818 18.0001 20.6758 18 20.5566C18 20.5488 18 20.5411 18 20.5335V19.6596C19.1062 19.1342 20.0517 18.3281 20.7452 17.3335L21.2231 17.3335C21.3422 17.3335 21.4845 17.3336 21.6098 17.3234C21.755 17.3115 21.963 17.2811 22.181 17.17C22.4632 17.0262 22.6927 16.7967 22.8365 16.5145C22.9476 16.2965 22.978 16.0885 22.9899 15.9433C23.0001 15.818 23.0001 15.6758 23 15.5566C23 15.5488 23 15.5411 23 15.5335L23 12.0972C23 11.9838 23.0001 11.8483 22.9908 11.7288C22.98 11.5907 22.9525 11.3924 22.8514 11.1826M7.84273 9.45599C8.65945 10.593 9.99325 11.3335 11.5 11.3335C13.4728 11.3335 15.1491 10.064 15.7565 8.29743C15.8065 8.28611 15.8506 8.27339 15.8744 8.26653C15.8774 8.26567 15.8801 8.2649 15.8824 8.26424L18 7.65922V8.50367C18 8.51109 17.9999 8.51969 17.9999 8.52937C17.9992 8.62093 17.9979 8.80815 18.041 8.98874C18.0783 9.14493 18.1354 9.28336 18.2189 9.42053C18.3159 9.57984 18.4573 9.72027 18.5284 9.79097C18.5363 9.79882 18.5434 9.80582 18.5494 9.81188C18.9583 10.224 19.2955 10.7063 19.5415 11.2385L19.5484 11.2534C19.5883 11.3397 19.6324 11.4352 19.6746 11.5155C19.719 11.6 19.7951 11.7354 19.9176 11.8648C20.0907 12.0476 20.2891 12.1745 20.5277 12.2549C20.69 12.3096 20.863 12.3271 21 12.3322V15.3335H20.6587C20.6493 15.3335 20.6383 15.3334 20.6259 15.3333C20.5101 15.3323 20.2735 15.3302 20.052 15.3965C19.8607 15.4538 19.6959 15.5405 19.5405 15.6659C19.3597 15.8116 19.219 16.0207 19.1478 16.1265C19.1398 16.1383 19.1327 16.1489 19.1265 16.1579C18.62 16.8963 17.9206 17.4917 17.1026 17.8715L17.0869 17.8788C16.9968 17.9206 16.8969 17.9669 16.8131 18.0114C16.7245 18.0584 16.5832 18.139 16.4499 18.2697C16.2824 18.4339 16.1647 18.6182 16.0863 18.8394C15.9953 19.0958 15.9983 19.379 15.9997 19.518C15.9999 19.533 16 19.5464 16 19.5578V20.3335H14.4999L14.4999 20.1104C14.5 19.9912 14.5 19.849 14.4898 19.7237C14.4779 19.5784 14.4475 19.3705 14.3364 19.1525C14.1926 18.8703 13.9632 18.6408 13.6809 18.497C13.463 18.3859 13.255 18.3555 13.1098 18.3436C12.9844 18.3334 12.8422 18.3334 12.7231 18.3335C12.7152 18.3335 12.7075 18.3335 12.6999 18.3335H11.2999C11.2923 18.3335 11.2846 18.3335 11.2768 18.3335C11.1577 18.3334 11.0154 18.3334 10.8901 18.3436C10.7449 18.3555 10.5369 18.3859 10.3189 18.497C10.0367 18.6408 9.80723 18.8703 9.66342 19.1525C9.55237 19.3705 9.52193 19.5784 9.51006 19.7237C9.49982 19.849 9.49988 19.9912 9.49992 20.1104L9.49993 20.3335H7.99993V18.1633C7.99993 18.1559 7.99999 18.1473 8.00006 18.1376C8.00071 18.0461 8.00203 17.8588 7.95889 17.6782C7.92159 17.522 7.86456 17.3836 7.78102 17.2465C7.684 17.0872 7.54267 16.9467 7.47149 16.876C7.46359 16.8682 7.45655 16.8612 7.45053 16.8551C6.55279 15.9503 5.99993 14.7075 5.99993 13.3335C5.99993 11.7704 6.71703 10.3737 7.84273 9.45599ZM15.9506 6.16471L17.7055 5.66333C17.7145 5.66077 17.7235 5.65819 17.7326 5.65559C17.8814 5.613 18.0499 5.56481 18.1986 5.53632C18.3627 5.50486 18.6207 5.47142 18.9094 5.5533C19.2693 5.6554 19.578 5.8883 19.7751 6.20629C19.9331 6.46134 19.9718 6.71867 19.9867 6.88511C20.0001 7.03585 20.0001 7.21111 20 7.36593C20 7.37539 20 7.38478 20 7.39407V8.43451C20.5403 8.98594 20.9905 9.62687 21.3262 10.3336C21.4174 10.334 21.5155 10.3358 21.6047 10.3427C21.7428 10.3535 21.9411 10.381 22.1509 10.4821C22.457 10.6295 22.704 10.8765 22.8514 11.1826" fill="#52AE30"/>
</svg>