<svg width="24" height="25" viewBox="0 0 24 25" fill="none" xmlns="http://www.w3.org/2000/svg">
<path fill-rule="evenodd" clip-rule="evenodd" d="M12 4.83301C10.067 4.83301 8.50001 6.40001 8.50001 8.33301C8.50001 10.266 10.067 11.833 12 11.833C13.933 11.833 15.5 10.266 15.5 8.33301C15.5 6.40001 13.933 4.83301 12 4.83301ZM6.50001 8.33301C6.50001 5.29544 8.96244 2.83301 12 2.83301C15.0376 2.83301 17.5 5.29544 17.5 8.33301C17.5 11.3706 15.0376 13.833 12 13.833C8.96244 13.833 6.50001 11.3706 6.50001 8.33301ZM9.32627 15.333C9.38334 15.333 9.44124 15.333 9.50001 15.333H14.5C14.5588 15.333 14.6167 15.333 14.6737 15.333C15.901 15.3325 16.739 15.3322 17.4514 15.5483C19.0494 16.0331 20.3 17.2836 20.7847 18.8816C21.0008 19.594 21.0005 20.432 21 21.6593C21 21.7163 21 21.7742 21 21.833C21 22.3853 20.5523 22.833 20 22.833C19.4477 22.833 19 22.3853 19 21.833C19 20.3647 18.9892 19.8522 18.8708 19.4621C18.58 18.5033 17.8297 17.753 16.8709 17.4622C16.4808 17.3439 15.9683 17.333 14.5 17.333H9.50001C8.03169 17.333 7.51922 17.3439 7.12915 17.4622C6.17035 17.753 5.42004 18.5033 5.12919 19.4621C5.01086 19.8522 5.00001 20.3647 5.00001 21.833C5.00001 22.3853 4.55229 22.833 4.00001 22.833C3.44772 22.833 3.00001 22.3853 3.00001 21.833C3.00001 21.7742 2.99999 21.7163 2.99996 21.6593C2.99951 20.432 2.9992 19.594 3.21531 18.8816C3.70006 17.2836 4.95058 16.0331 6.54858 15.5483C7.26098 15.3322 8.099 15.3325 9.32627 15.333Z" fill="#52AE30"/>
</svg>
