<svg xmlns="http://www.w3.org/2000/svg" width="24" height="25" viewBox="0 0 24 25" fill="none">
<path fill-rule="evenodd" clip-rule="evenodd" d="M10.2929 2.62639C10.6834 2.23586 11.3166 2.23586 11.7071 2.62639L13.7071 4.62639C14.0976 5.01691 14.0976 5.65008 13.7071 6.0406L11.7071 8.0406C11.3166 8.43113 10.6834 8.43113 10.2929 8.0406C9.90237 7.65008 9.90237 7.01691 10.2929 6.62639L10.5858 6.3335H5.2C4.62345 6.3335 4.25118 6.33427 3.96784 6.35742C3.69617 6.37962 3.59546 6.4173 3.54601 6.44249C3.35785 6.53836 3.20487 6.69134 3.109 6.87951C3.0838 6.92895 3.04612 7.02967 3.02393 7.30133C3.00078 7.58467 3 7.95694 3 8.5335V9.3335H21V8.5335C21 7.95694 20.9992 7.58467 20.9761 7.30133C20.9539 7.02967 20.9162 6.92895 20.891 6.87951C20.7951 6.69135 20.6422 6.53836 20.454 6.44249C20.4045 6.4173 20.3038 6.37962 20.0322 6.35742C19.7488 6.33427 19.3766 6.3335 18.8 6.3335H17C16.4477 6.3335 16 5.88578 16 5.3335C16 4.78121 16.4477 4.3335 17 4.3335L18.8385 4.3335C19.3657 4.33348 19.8205 4.33346 20.195 4.36407C20.5904 4.39637 20.9836 4.46768 21.362 4.66048C21.9265 4.9481 22.3854 5.40704 22.673 5.97153C22.8658 6.34991 22.9371 6.74312 22.9694 7.13847C23 7.51304 23 7.96779 23 8.49493V16.1721C23 16.6992 23 17.154 22.9694 17.5285C22.9371 17.9239 22.8658 18.3171 22.673 18.6955C22.3854 19.26 21.9265 19.7189 21.362 20.0065C20.9836 20.1993 20.5904 20.2706 20.195 20.3029C19.8205 20.3335 19.3657 20.3335 18.8386 20.3335L13.4142 20.3335L13.7071 20.6264C14.0976 21.0169 14.0976 21.6501 13.7071 22.0406C13.3166 22.4311 12.6834 22.4311 12.2929 22.0406L10.2929 20.0406C10.1054 19.8531 10 19.5987 10 19.3335C10 19.0683 10.1054 18.8139 10.2929 18.6264L12.2929 16.6264C12.6834 16.2359 13.3166 16.2359 13.7071 16.6264C14.0976 17.0169 14.0976 17.6501 13.7071 18.0406L13.4142 18.3335L18.8 18.3335C19.3766 18.3335 19.7488 18.3327 20.0322 18.3096C20.3038 18.2874 20.4045 18.2497 20.454 18.2245C20.6422 18.1286 20.7951 17.9756 20.891 17.7875C20.9162 17.738 20.9539 17.6373 20.9761 17.3657C20.9992 17.0823 21 16.71 21 16.1335V11.3335H3V16.1335C3 16.71 3.00078 17.0823 3.02393 17.3657C3.04612 17.6373 3.0838 17.738 3.109 17.7875C3.20487 17.9756 3.35785 18.1286 3.54601 18.2245C3.59546 18.2497 3.69617 18.2874 3.96784 18.3096C4.25117 18.3327 4.62345 18.3335 5.2 18.3335H7C7.55229 18.3335 8 18.7812 8 19.3335C8 19.8858 7.55229 20.3335 7 20.3335L5.16143 20.3335C4.63429 20.3335 4.17954 20.3335 3.80497 20.3029C3.40963 20.2706 3.01641 20.1993 2.63803 20.0065C2.07354 19.7189 1.6146 19.26 1.32698 18.6955C1.13419 18.3171 1.06287 17.9239 1.03057 17.5285C0.999967 17.1539 0.999983 16.6992 1 16.172V8.49495C0.999983 7.9678 0.999967 7.51304 1.03057 7.13847C1.06287 6.74312 1.13419 6.3499 1.32698 5.97152C1.6146 5.40704 2.07354 4.9481 2.63803 4.66048C3.01641 4.46768 3.40963 4.39637 3.80497 4.36407C4.17955 4.33346 4.63431 4.33348 5.16146 4.3335L10.5858 4.3335L10.2929 4.0406C9.90237 3.65008 9.90237 3.01691 10.2929 2.62639Z" fill="#52AE30"/>
</svg>