<svg width="68" height="68" viewBox="0 0 68 68" fill="none" xmlns="http://www.w3.org/2000/svg">
<g id="Logo Browser Tag">
<path id="Vector" fill-rule="evenodd" clip-rule="evenodd" d="M0 33.6208C0 15.067 15.0288 0.025451 33.5826 0V12.1529C21.7352 12.1783 12.1529 21.7861 12.1529 33.6208C12.1529 45.4555 21.7733 55.0887 33.6208 55.0887C45.4682 55.0887 55.0887 45.57 55.0887 33.5317H67.2416C67.2416 52.1873 52.1873 67.2416 33.6208 67.2416C15.0543 67.2416 0 52.1873 0 33.6208Z" fill="#006648"/>
<path id="Vector_2" d="M44.0557 14.7361C44.0557 10.0149 47.886 6.18457 52.6072 6.18457C57.3284 6.18457 61.1588 10.0149 61.1588 14.7361C61.1588 19.4573 57.3284 23.2877 52.6072 23.2877C47.886 23.2877 44.0557 19.4573 44.0557 14.7361Z" fill="#006648"/>
<path id="Vector_3" d="M18.7957 33.6208C18.7957 25.3874 25.4765 18.7065 33.71 18.7065C41.9434 18.7065 48.6242 25.3874 48.6242 33.6208C48.6242 41.8542 41.9434 48.5351 33.71 48.5351C25.4765 48.5351 18.7957 41.8542 18.7957 33.6208Z" fill="#52AE30"/>
</g>
</svg>
