<svg width="26" height="24" viewBox="0 0 26 24" fill="none" xmlns="http://www.w3.org/2000/svg">
<g id="OTP-icon-72x72-manager">
<path id="Vector" d="M15.7036 8.57875C15.3711 8.24594 15.1843 7.79455 15.1843 7.32389C15.1843 7.79455 14.9975 8.24594 14.665 8.57875C14.3325 8.91155 13.8815 9.09852 13.4113 9.09852C12.941 9.09852 12.49 8.91155 12.1575 8.57875C11.825 8.24594 11.6382 7.79455 11.6382 7.32389C11.6382 7.79455 11.4514 8.24594 11.1189 8.57875C10.7864 8.91155 10.3354 9.09852 9.86518 9.09852C9.39495 9.09852 8.94397 8.91155 8.61146 8.57875C8.27895 8.24594 8.09215 7.79455 8.09215 7.32389C8.09215 7.79455 7.90535 8.24594 7.57284 8.57875C7.24033 8.91155 6.78935 9.09852 6.31911 9.09852C5.84887 9.09852 5.39789 8.91155 5.06538 8.57875C4.73288 8.24594 4.54607 7.79455 4.54607 7.32389C4.54607 7.79455 4.35927 8.24594 4.02676 8.57875C3.69425 8.91155 3.24328 9.09852 2.77304 9.09852C2.3028 9.09852 1.85182 8.91155 1.51931 8.57875C1.1868 8.24594 1 7.79455 1 7.32389L2.07879 2.46298C2.10817 2.33159 2.18139 2.21414 2.28639 2.12998C2.39138 2.04582 2.52189 1.99998 2.65641 2H17.074C17.2084 1.99987 17.3389 2.04569 17.4438 2.12988C17.5487 2.21408 17.6217 2.33159 17.6508 2.46298L18.4053 5.86027M20.1906 19.7261L23.5503 17.8637C23.6615 17.8089 23.7853 17.7845 23.909 17.7928C24.0327 17.8011 24.1521 17.8419 24.255 17.9111C24.358 17.9803 24.4409 18.0755 24.4954 18.187C24.5499 18.2985 24.5741 18.4224 24.5655 18.5462V21.2294C24.5754 21.3608 24.5481 21.4923 24.4868 21.6089C24.4256 21.7255 24.3327 21.8225 24.2189 21.8887C24.1052 21.955 23.975 21.9879 23.8435 21.9836C23.7119 21.9793 23.5842 21.938 23.475 21.8645L20.1906 19.7261ZM20.1906 19.7261L16.6284 17.8638C16.5074 17.8026 16.373 17.7725 16.2374 17.7763C16.1019 17.78 15.9694 17.8174 15.8519 17.8852C15.7344 17.953 15.6356 18.049 15.5644 18.1645C15.4932 18.28 15.4518 18.4114 15.444 18.547V21.2295C15.4532 21.3733 15.4999 21.5121 15.5795 21.6322C15.6592 21.7522 15.7689 21.8492 15.8977 21.9135C16.0266 21.9778 16.17 22.0071 16.3137 21.9985C16.4574 21.9899 16.5963 21.9437 16.7166 21.8646L20.1906 19.7261ZM2.18196 14.9937H12.2292M2.18196 14.9937V18.543C2.18196 18.8567 2.3065 19.1577 2.52817 19.3795C2.74984 19.6014 3.05049 19.7261 3.36399 19.7261H12.2292M2.18196 14.9937V11.4444M12.2292 19.7261V11.4444M12.2292 19.7261H15.3209M17.5483 15.5217V18.0696M16.3123 7.87355C17.7608 9.32513 19.7239 10.1447 21.7736 10.1535C22.8146 10.1531 23.8445 9.93964 24.8 9.52625M25 10.9969C25 13.8406 22.8333 15.8889 20.1604 15.8889C17.4876 15.8889 15.3207 13.8406 15.3207 10.9969C15.3207 8.15316 17.4876 6 20.1604 6C22.8333 6 25 8.15316 25 10.9969Z" stroke="#52AE30" stroke-width="1.5" stroke-linecap="round" stroke-linejoin="round"/>
</g>
</svg>
