<svg width="57" height="58" viewBox="0 0 57 58" fill="none" xmlns="http://www.w3.org/2000/svg">
<path fill-rule="evenodd" clip-rule="evenodd" d="M18.4269 5.25L19 5.25C20.3117 5.25 21.375 6.31333 21.375 7.625C21.375 8.93668 20.3117 10 19 10H18.525C16.4906 10 15.1077 10.0018 14.0387 10.0892C12.9975 10.1743 12.465 10.3285 12.0935 10.5177C11.1998 10.9731 10.4731 11.6998 10.0177 12.5935C9.82846 12.965 9.67426 13.4975 9.58919 14.5387C9.50185 15.6077 9.5 16.9906 9.5 19.025V19.5C9.5 20.8117 8.43668 21.875 7.125 21.875C5.81333 21.875 4.75 20.8117 4.75 19.5L4.75 18.9269C4.74997 17.0151 4.74995 15.4373 4.85496 14.1519C4.96403 12.8169 5.19812 11.5898 5.78544 10.4371C6.69624 8.64955 8.14955 7.19624 9.93709 6.28544C11.0898 5.69812 12.3169 5.46403 13.6519 5.35496C14.9373 5.24995 16.5151 5.24997 18.4269 5.25ZM42.9613 10.0892C41.8923 10.0018 40.5094 10 38.475 10H38C36.6883 10 35.625 8.93668 35.625 7.625C35.625 6.31333 36.6883 5.25 38 5.25L38.5731 5.25C40.4849 5.24997 42.0628 5.24995 43.3481 5.35496C44.6831 5.46403 45.9102 5.69812 47.0629 6.28544C48.8504 7.19624 50.3038 8.64955 51.2146 10.4371C51.8019 11.5898 52.036 12.8169 52.145 14.1519C52.2501 15.4372 52.25 17.0151 52.25 18.9269V19.5C52.25 20.8117 51.1867 21.875 49.875 21.875C48.5633 21.875 47.5 20.8117 47.5 19.5V19.025C47.5 16.9906 47.4982 15.6077 47.4108 14.5387C47.3257 13.4975 47.1715 12.965 46.9823 12.5935C46.5269 11.6998 45.8002 10.9731 44.9065 10.5177C44.535 10.3285 44.0025 10.1743 42.9613 10.0892ZM4.75 29C4.75 27.6883 5.81333 26.625 7.125 26.625H7.14875C8.46043 26.625 9.52375 27.6883 9.52375 29C9.52375 30.3117 8.46043 31.375 7.14875 31.375H7.125C5.81333 31.375 4.75 30.3117 4.75 29ZM15.4375 29C15.4375 27.6883 16.5008 26.625 17.8125 26.625H17.8363C19.1479 26.625 20.2113 27.6883 20.2113 29C20.2113 30.3117 19.1479 31.375 17.8363 31.375H17.8125C16.5008 31.375 15.4375 30.3117 15.4375 29ZM26.125 29C26.125 27.6883 27.1883 26.625 28.5 26.625H28.5238C29.8354 26.625 30.8988 27.6883 30.8988 29C30.8988 30.3117 29.8354 31.375 28.5238 31.375H28.5C27.1883 31.375 26.125 30.3117 26.125 29ZM36.8125 29C36.8125 27.6883 37.8758 26.625 39.1875 26.625H39.2113C40.5229 26.625 41.5863 27.6883 41.5863 29C41.5863 30.3117 40.5229 31.375 39.2113 31.375H39.1875C37.8758 31.375 36.8125 30.3117 36.8125 29ZM47.5 29C47.5 27.6883 48.5633 26.625 49.875 26.625H49.8988C51.2104 26.625 52.2738 27.6883 52.2738 29C52.2738 30.3117 51.2104 31.375 49.8988 31.375H49.875C48.5633 31.375 47.5 30.3117 47.5 29ZM7.125 36.125C8.43668 36.125 9.5 37.1883 9.5 38.5V38.975C9.5 41.0094 9.50185 42.3923 9.58919 43.4613C9.67426 44.5025 9.82846 45.035 10.0177 45.4065C10.4731 46.3002 11.1998 47.0269 12.0935 47.4823C12.465 47.6715 12.9975 47.8257 14.0387 47.9108C15.1077 47.9982 16.4906 48 18.525 48H19C20.3117 48 21.375 49.0633 21.375 50.375C21.375 51.6867 20.3117 52.75 19 52.75H18.4269C16.5151 52.75 14.9372 52.7501 13.6519 52.645C12.3169 52.536 11.0898 52.3019 9.93709 51.7146C8.14955 50.8038 6.69624 49.3504 5.78544 47.5629C5.19812 46.4102 4.96403 45.1831 4.85496 43.8481C4.74995 42.5627 4.74997 40.9849 4.75 39.0731L4.75 38.5C4.75 37.1883 5.81333 36.125 7.125 36.125ZM49.875 36.125C51.1867 36.125 52.25 37.1883 52.25 38.5V39.0731C52.25 40.9849 52.2501 42.5628 52.145 43.8481C52.036 45.1831 51.8019 46.4102 51.2146 47.5629C50.3038 49.3504 48.8504 50.8038 47.0629 51.7146C45.9102 52.3019 44.6831 52.536 43.3481 52.645C42.0628 52.7501 40.4849 52.75 38.5731 52.75H38C36.6883 52.75 35.625 51.6867 35.625 50.375C35.625 49.0633 36.6883 48 38 48H38.475C40.5094 48 41.8923 47.9982 42.9613 47.9108C44.0025 47.8257 44.535 47.6715 44.9065 47.4823C45.8002 47.0269 46.5269 46.3002 46.9823 45.4065C47.1715 45.035 47.3257 44.5025 47.4108 43.4613C47.4982 42.3923 47.5 41.0094 47.5 38.975V38.5C47.5 37.1883 48.5633 36.125 49.875 36.125Z" fill="#52AE30"/>
</svg>
