<svg xmlns="http://www.w3.org/2000/svg" width="24" height="25" viewBox="0 0 24 25" fill="none">
<path fill-rule="evenodd" clip-rule="evenodd" d="M7.00001 5.8335C7.00001 3.34821 9.01472 1.3335 11.5 1.3335C12.7661 1.3335 13.9095 1.85678 14.7263 2.69657C15.2705 2.4629 15.8702 2.3335 16.5 2.3335C18.9853 2.3335 21 4.34821 21 6.8335C21 9.31878 18.9853 11.3335 16.5 11.3335C15.2345 11.3335 14.0911 10.8111 13.2734 9.97026C12.7288 10.204 12.1289 10.3335 11.5 10.3335C9.01472 10.3335 7.00001 8.31878 7.00001 5.8335ZM12.2204 8.22842C12.0773 7.78925 12 7.3204 12 6.8335C12 5.71331 12.4093 4.68872 13.0865 3.90112C12.6544 3.54583 12.1018 3.3335 11.5 3.3335C10.1193 3.3335 9 4.45278 9 5.8335C9 7.21421 10.1193 8.3335 11.5 8.3335C11.7509 8.3335 11.9926 8.29678 12.2204 8.22842ZM16.5 4.3335C15.1193 4.3335 14 5.45278 14 6.8335C14 8.21421 15.1193 9.3335 16.5 9.3335C17.8807 9.3335 19 8.21421 19 6.8335C19 5.45278 17.8807 4.3335 16.5 4.3335ZM3.56809 12.3335L4.43189 12.3335C4.68428 12.3335 4.93007 12.3334 5.13824 12.3504C5.36683 12.3691 5.63656 12.4132 5.90799 12.5515C6.28431 12.7432 6.59027 13.0492 6.78202 13.4255C6.861 13.5805 6.90925 13.735 6.93958 13.8815L8.53285 13.2153L8.54205 13.2111C8.55726 13.2043 8.57881 13.1947 8.60606 13.1827C8.66053 13.1587 8.73803 13.1251 8.83354 13.0851C9.02386 13.0054 9.28913 12.8988 9.58833 12.7915C10.1413 12.5934 10.9678 12.3335 11.6431 12.3335C12.1223 12.3335 12.599 12.3906 13.0643 12.5034L15.4497 13.0835C16.5433 13.3487 17.3491 14.2908 17.4048 15.4179L18.8878 14.336C19.9068 13.5929 21.3291 13.6883 22.2352 14.5698C23.2544 15.5612 23.2555 17.1805 22.2352 18.172L20.0776 20.2708C19.3555 20.9732 18.4379 21.4496 17.4442 21.6432L14.3945 22.2365C13.6488 22.3813 12.8793 22.364 12.1402 22.184L9.38268 21.5139L9.3804 21.5133C9.12936 21.4517 8.87118 21.4206 8.6103 21.4206H6.98685C6.98569 21.4379 6.98443 21.4549 6.98306 21.4717C6.96438 21.7003 6.92032 21.9701 6.78202 22.2415C6.59027 22.6178 6.28431 22.9238 5.90799 23.1155C5.63656 23.2538 5.36683 23.2979 5.13824 23.3166C4.93008 23.3336 4.6843 23.3335 4.43192 23.3335H3.56816C3.31576 23.3335 3.06995 23.3336 2.86177 23.3165C2.63318 23.2979 2.36345 23.2538 2.09202 23.1155C1.7157 22.9238 1.40974 22.6178 1.21799 22.2415C1.07969 21.9701 1.03563 21.7003 1.01695 21.4717C0.999943 21.2636 0.999973 21.0178 1 20.7654L1 14.9016C0.999973 14.6492 0.999943 14.4034 1.01695 14.1953C1.03563 13.9667 1.07969 13.6969 1.21799 13.4255C1.40974 13.0492 1.7157 12.7432 2.09202 12.5515C2.36345 12.4132 2.63318 12.3691 2.86178 12.3504C3.06993 12.3334 3.31571 12.3335 3.56809 12.3335ZM7.00001 19.4206H8.6103C9.02964 19.4206 9.44753 19.4705 9.85593 19.5707C9.85636 19.5708 9.8568 19.5709 9.85723 19.571L12.613 20.2407C13.0708 20.3522 13.5488 20.3633 14.0125 20.2733M14.0125 20.2733L17.0618 19.6801C17.0617 19.6801 17.0618 19.68 17.0618 19.6801C17.6791 19.5597 18.2437 19.2646 18.6831 18.8372L20.8406 16.7384C21.052 16.5331 21.0535 16.2104 20.8406 16.0034C20.6373 15.8055 20.3025 15.7796 20.0663 15.9518L17.5527 17.7857C17.0188 18.1759 16.3733 18.3833 15.7137 18.3833L13.2855 18.3833C12.7333 18.3833 12.2855 17.9356 12.2855 17.3833C12.2855 16.8311 12.7332 16.3834 13.2855 16.3833L14.831 16.3833C15.1761 16.3833 15.4079 16.1187 15.4079 15.8494V15.5426C15.4079 15.3171 15.2478 15.0925 14.9784 15.0272L12.5929 14.4471C12.2818 14.3716 11.9633 14.3335 11.6431 14.3335C11.3537 14.3335 10.8246 14.473 10.2631 14.6743C10.0051 14.7667 9.77346 14.8598 9.60617 14.9299C9.52287 14.9648 9.4564 14.9936 9.41159 15.0133L9.36145 15.0356L9.34984 15.0408L9.34785 15.0417C9.33793 15.0462 9.32777 15.0507 9.31771 15.0549L7.00001 16.0241V19.4206M5.00001 15.3815V20.7335C5.00001 21.03 4.99923 21.1923 4.9897 21.3089C4.98932 21.3135 4.98894 21.3179 4.98856 21.322C4.98441 21.3224 4.98001 21.3228 4.97537 21.3232C4.85879 21.3327 4.69653 21.3335 4.4 21.3335H3.6C3.30348 21.3335 3.14123 21.3327 3.02464 21.3232C3.02 21.3228 3.0156 21.3224 3.01145 21.322C3.01107 21.3179 3.01069 21.3135 3.01031 21.3089C3.00078 21.1923 3.00001 21.03 3.00001 20.7335V14.9335C3.00001 14.637 3.00078 14.4747 3.01031 14.3581C3.01069 14.3535 3.01107 14.3491 3.01145 14.3449C3.0156 14.3446 3.02 14.3442 3.02464 14.3438C3.14122 14.3343 3.30348 14.3335 3.60001 14.3335L4.40001 14.3335C4.69653 14.3335 4.85879 14.3343 4.97537 14.3438C4.98001 14.3442 4.98441 14.3446 4.98856 14.3449C4.98894 14.3491 4.98932 14.3535 4.9897 14.3581C4.99923 14.4747 5.00001 14.637 5.00001 14.9335V15.3361C4.99966 15.3512 4.99966 15.3663 5.00001 15.3815Z" fill="#52AE30"/>
</svg>