<svg xmlns="http://www.w3.org/2000/svg" width="24" height="25" viewBox="0 0 24 25" fill="none">
<path fill-rule="evenodd" clip-rule="evenodd" d="M9.5 4.3335C7.84315 4.3335 6.5 5.67664 6.5 7.3335C6.5 8.99035 7.84315 10.3335 9.5 10.3335C11.1569 10.3335 12.5 8.99035 12.5 7.3335C12.5 5.67664 11.1569 4.3335 9.5 4.3335ZM4.5 7.3335C4.5 4.57207 6.73858 2.3335 9.5 2.3335C12.2614 2.3335 14.5 4.57207 14.5 7.3335C14.5 10.0949 12.2614 12.3335 9.5 12.3335C6.73858 12.3335 4.5 10.0949 4.5 7.3335ZM14.5731 3.24904C14.7803 2.73711 15.3633 2.49009 15.8752 2.69732C17.7058 3.43831 19 5.23356 19 7.3335C19 9.43343 17.7058 11.2287 15.8752 11.9697C15.3633 12.1769 14.7803 11.9299 14.5731 11.418C14.3658 10.906 14.6129 10.323 15.1248 10.1158C16.2261 9.67001 17 8.59094 17 7.3335C17 6.07605 16.2261 4.99698 15.1248 4.55119C14.6129 4.34397 14.3658 3.76097 14.5731 3.24904ZM7.96448 14.3335H11.0355C11.9373 14.3335 12.6647 14.3335 13.2567 14.3739C13.8654 14.4154 14.4037 14.503 14.9134 14.7141C16.1386 15.2216 17.1119 16.1949 17.6194 17.4201C17.8305 17.9298 17.9181 18.4681 17.9596 19.0768C18 19.6688 18 20.3962 18 21.298V21.3335C18 21.8858 17.5523 22.3335 17 22.3335C16.4477 22.3335 16 21.8858 16 21.3335C16 20.3879 15.9995 19.7288 15.9643 19.2129C15.9297 18.706 15.865 18.4108 15.7716 18.1854C15.4672 17.4504 14.8831 16.8663 14.1481 16.5619C13.9227 16.4685 13.6275 16.4038 13.1206 16.3692C12.6047 16.334 11.9456 16.3335 11 16.3335H8C7.05444 16.3335 6.39534 16.334 5.87945 16.3692C5.37254 16.4038 5.07733 16.4685 4.85195 16.5619C4.11687 16.8663 3.53284 17.4504 3.22836 18.1854C3.135 18.4108 3.07033 18.706 3.03574 19.2129C3.00054 19.7288 3 20.3879 3 21.3335C3 21.8858 2.55229 22.3335 2 22.3335C1.44772 22.3335 1 21.8858 1 21.3335L1 21.298C0.999993 20.3962 0.999988 19.6688 1.04038 19.0768C1.08191 18.4681 1.16948 17.9298 1.3806 17.4201C1.88807 16.1949 2.86144 15.2216 4.08658 14.7141C4.59628 14.503 5.13456 14.4154 5.74331 14.3739C6.33531 14.3335 7.06272 14.3335 7.96448 14.3335ZM18.0316 15.2103C18.1692 14.6754 18.7144 14.3534 19.2493 14.4911C21.4056 15.0461 23 17.0023 23 19.3335V21.3335C23 21.8858 22.5523 22.3335 22 22.3335C21.4477 22.3335 21 21.8858 21 21.3335V19.3335C21 17.937 20.0449 16.761 18.7507 16.428C18.2159 16.2903 17.8939 15.7451 18.0316 15.2103Z" fill="#52AE30"/>
</svg>