<svg width="18" height="19" viewBox="0 0 18 19" fill="none" xmlns="http://www.w3.org/2000/svg">
<path fill-rule="evenodd" clip-rule="evenodd" d="M5.17876 3.24675C4.96593 3.1391 4.71458 3.1391 4.50174 3.24675C4.4217 3.28724 4.32192 3.37369 3.88165 3.81395L3.76343 3.93218C3.34326 4.35234 3.23001 4.47386 3.13948 4.63502C3.03454 4.82182 2.94663 5.15988 2.94727 5.37413C2.94784 5.56479 2.97598 5.6796 3.09993 6.11629C3.71163 8.27147 4.86558 10.3053 6.56383 12.0035C8.26207 13.7018 10.2959 14.8557 12.4511 15.4674C12.8878 15.5914 13.0026 15.6195 13.1932 15.6201C13.4075 15.6207 13.7456 15.5328 13.9324 15.4279C14.0935 15.3374 14.215 15.2241 14.6352 14.8039L14.7534 14.6857C15.1937 14.2455 15.2801 14.1457 15.3206 14.0656C15.4283 13.8528 15.4283 13.6014 15.3206 13.3886C15.2801 13.3086 15.1937 13.2088 14.7534 12.7685L15.2838 12.2382L14.7534 12.7685L14.6073 12.6224C14.318 12.3331 14.2529 12.2739 14.2036 12.2418C13.9551 12.0802 13.6346 12.0802 13.386 12.2418C13.3367 12.2739 13.2717 12.3331 12.9824 12.6224C12.9767 12.6281 12.9708 12.634 12.9648 12.64C12.8975 12.7075 12.8123 12.793 12.71 12.8663L12.2733 12.2565L12.71 12.8663C12.3447 13.1278 11.8482 13.2125 11.4169 13.0868C11.2966 13.0517 11.1976 13.004 11.1206 12.9669C11.1145 12.9639 11.1086 12.9611 11.1027 12.9583C9.94028 12.4001 8.85151 11.6396 7.88965 10.6777C6.92779 9.71587 6.16723 8.6271 5.6091 7.46463C5.60631 7.45881 5.60344 7.45286 5.6005 7.44677C5.56337 7.36975 5.51564 7.27074 5.48058 7.15046L6.20061 6.94057L5.48058 7.15046C5.35486 6.71918 5.43953 6.22264 5.70106 5.8574L5.70106 5.85739C5.77434 5.75507 5.85985 5.66986 5.9274 5.60256C5.93342 5.59656 5.93929 5.59071 5.945 5.585C6.23429 5.29571 6.29352 5.23067 6.32557 5.18137L6.32557 5.18137C6.48719 4.93279 6.48719 4.61232 6.32557 4.36374C6.29352 4.31443 6.23429 4.24939 5.945 3.96011L5.79885 3.81395C5.35858 3.37369 5.2588 3.28724 5.17876 3.24675ZM3.82472 1.90823C4.46323 1.58528 5.21728 1.58528 5.85578 1.90823C6.18023 2.07233 6.46189 2.35472 6.78773 2.68139C6.81141 2.70513 6.83533 2.72911 6.85951 2.75329L7.00566 2.89945C7.0216 2.91538 7.03739 2.93114 7.05302 2.94675C7.26801 3.16138 7.45321 3.34626 7.58314 3.5461L6.95436 3.95492L7.58314 3.5461C8.06801 4.29185 8.06801 5.25325 7.58314 5.99901C7.45321 6.19884 7.26801 6.38373 7.05302 6.59836C7.03739 6.61396 7.0216 6.62972 7.00566 6.64566C6.96246 6.68886 6.94042 6.71102 6.92506 6.72726C6.92478 6.72849 6.92451 6.72984 6.92426 6.7313C6.92398 6.73292 6.92378 6.73443 6.92364 6.73579C6.92611 6.74127 6.92945 6.74852 6.93406 6.75832C6.94127 6.77364 6.94974 6.79129 6.96132 6.8154C7.44718 7.82736 8.1098 8.77655 8.95031 9.61706C9.79082 10.4576 10.74 11.1202 11.752 11.6061L11.4274 12.2822L11.752 11.6061C11.7761 11.6176 11.7937 11.6261 11.8091 11.6333C11.8189 11.6379 11.8261 11.6413 11.8316 11.6437C11.8329 11.6436 11.8345 11.6434 11.8361 11.6431C11.8375 11.6429 11.8389 11.6426 11.8401 11.6423C11.8564 11.627 11.8785 11.6049 11.9217 11.5617C11.9377 11.5458 11.9534 11.53 11.969 11.5143C12.1837 11.2994 12.3685 11.1142 12.5684 10.9842C13.3141 10.4994 14.2755 10.4994 15.0213 10.9842C15.2211 11.1142 15.406 11.2994 15.6206 11.5143C15.6362 11.53 15.652 11.5458 15.6679 11.5617L15.1376 12.092L15.6679 11.5617L15.8141 11.7079C15.8383 11.732 15.8622 11.756 15.886 11.7796C16.2127 12.1055 16.495 12.3871 16.6591 12.7116C16.9821 13.3501 16.9821 14.1041 16.6591 14.7427C16.495 15.0671 16.2127 15.3488 15.886 15.6746C15.8622 15.6983 15.8383 15.7222 15.8141 15.7464L15.6959 15.8646C15.6787 15.8817 15.6618 15.8987 15.6451 15.9154C15.2961 16.2647 15.0285 16.5326 14.667 16.7357C14.2545 16.9674 13.6619 17.1215 13.1888 17.1201C12.7749 17.1189 12.473 17.0331 12.0838 16.9225C12.0698 16.9185 12.0557 16.9145 12.0415 16.9104C9.6466 16.2307 7.38689 14.9479 5.50317 13.0642C3.61944 11.1805 2.33668 8.92078 1.65693 6.52586C1.6529 6.51166 1.64889 6.49758 1.64493 6.48362C1.5343 6.09437 1.44851 5.79251 1.44728 5.3786C1.44587 4.90552 1.6 4.31284 1.83169 3.90038L1.83169 3.90038C2.03479 3.53883 2.30266 3.27124 2.65196 2.92229C2.66871 2.90556 2.68564 2.88864 2.70277 2.87152L2.82099 2.75329C2.84518 2.72911 2.8691 2.70513 2.89278 2.68139C3.21861 2.35472 3.50028 2.07233 3.82472 1.90823L4.1594 2.56991L3.82472 1.90823Z" fill="#52AE30"/>
</svg>
